<svg width="29" height="23" viewBox="0 0 29 23" fill="none" xmlns="http://www.w3.org/2000/svg">
<g clip-path="url(#clip0)">
<path d="M18.1229 22.1154C15.961 22.1154 14.3125 20.5507 13.704 19.8773C13.6896 19.8616 13.6767 19.8446 13.6655 19.8264C13.1892 19.8776 12.7103 19.9035 12.2311 19.9039C11.7341 19.9039 11.2533 19.8817 10.7887 19.8375C10.7785 19.8508 10.7695 19.8651 10.7582 19.8773C10.1497 20.5507 8.50115 22.1154 6.33932 22.1154C6.21912 22.1154 6.10385 22.162 6.01885 22.2449C5.93386 22.3279 5.88611 22.4404 5.88611 22.5577C5.88611 22.675 5.93386 22.7875 6.01885 22.8705C6.10385 22.9534 6.21912 23 6.33932 23H18.1229C18.2431 23 18.3583 22.9534 18.4433 22.8705C18.5283 22.7875 18.5761 22.675 18.5761 22.5577C18.5761 22.4404 18.5283 22.3279 18.4433 22.2449C18.3583 22.162 18.2431 22.1154 18.1229 22.1154Z" fill="#264759"/>
<path d="M29 8.33197C28.9824 8.22751 28.9269 8.13268 28.8438 8.06471C28.7606 7.99674 28.6552 7.96013 28.5468 7.96154H24.4678C24.367 7.96185 24.2691 7.99448 24.1891 8.05442C21.5072 10.0912 17.8441 10.1742 17.2969 10.1742H7.69894C7.23924 10.1744 6.78592 10.2792 6.37503 10.4804C5.96414 10.6815 5.60701 10.9735 5.33203 11.333C5.17907 10.3002 4.8437 9.18231 4.12649 8.52769C3.60529 8.05221 2.95606 7.86423 2.20033 7.96707C1.01404 8.12851 0.227717 8.85168 0.0475651 9.94307C-0.244758 11.6758 1.0673 14.2556 3.75825 15.5825C4.03028 15.7072 4.25152 15.9174 4.38651 16.1795C4.52149 16.4416 4.56239 16.7403 4.50266 17.0277C4.43039 17.3369 4.23781 17.6065 3.9656 17.7797C3.91478 17.8122 3.87118 17.8543 3.83739 17.9036C3.8036 17.9529 3.78031 18.0083 3.76891 18.0666C3.75751 18.1248 3.75823 18.1847 3.77102 18.2427C3.78381 18.3007 3.80842 18.3555 3.84337 18.404C3.87833 18.4525 3.92293 18.4937 3.97451 18.525C4.02609 18.5564 4.08361 18.5773 4.14363 18.5865C4.20366 18.5957 4.26497 18.5931 4.32392 18.5787C4.38287 18.5643 4.43826 18.5385 4.48679 18.5028C4.84841 18.2685 5.12865 17.9326 5.2905 17.5395C5.45234 17.1464 5.48816 16.7146 5.39322 16.3012C5.66733 16.6869 5.99401 17.0344 6.36423 17.334C7.72387 18.4398 9.75766 19.0259 12.2435 19.0259C19.0281 19.0259 23.7348 13.4583 26.2626 10.4672L26.641 10.0249C27.1361 9.44437 28.2986 8.96889 28.7043 8.83399C28.8072 8.79898 28.8937 8.72897 28.948 8.63677C29.0023 8.54457 29.0208 8.43636 29 8.33197ZM4.16388 14.7852C1.87288 13.6618 0.706991 11.4679 0.940396 10.0857C1.06163 9.36918 1.52844 8.9512 2.32836 8.84173C2.8099 8.77649 3.19626 8.88485 3.51238 9.17346C4.55024 10.12 4.60123 12.7484 4.53211 13.6806C4.52774 13.7426 4.53701 13.8048 4.55931 13.863C4.57336 14.3519 4.67061 14.8351 4.8471 15.2928C4.65183 15.0832 4.4182 14.9111 4.15821 14.7852H4.16388ZM12.2311 17.25C10.1746 17.25 8.54305 16.8077 7.51312 15.9684C6.51265 15.1546 6.3631 14.2124 6.3631 13.7237C6.3631 13.6064 6.41084 13.4939 6.49584 13.4109C6.58083 13.328 6.69611 13.2814 6.81631 13.2814C6.93651 13.2814 7.05179 13.328 7.13678 13.4109C7.22177 13.4939 7.26952 13.6064 7.26952 13.7237C7.26952 14.0554 7.38283 14.7067 8.09324 15.2884C8.95888 15.9927 10.3899 16.3654 12.2311 16.3654C12.3513 16.3654 12.4666 16.412 12.5515 16.4949C12.6365 16.5779 12.6843 16.6904 12.6843 16.8077C12.6843 16.925 12.6365 17.0375 12.5515 17.1204C12.4666 17.2034 12.3513 17.25 12.2311 17.25Z" fill="#264759"/>
<path fill-rule="evenodd" clip-rule="evenodd" d="M10.0285 8.82072C8.44228 6.7087 9.35777 2.82966 11.6839 0C13.7007 2.8949 15.0887 6.40683 13.3279 8.84615C13.1568 7.61101 12.6787 6.00101 11.642 5.22255C10.6925 5.92029 10.2744 7.54466 10.0285 8.82072Z" fill="#0C3D59"/>
<path fill-rule="evenodd" clip-rule="evenodd" d="M11.0425 8.83841C10.4058 8.20481 10.774 7.04154 11.7042 6.19231C12.5109 7.06034 13.0638 8.11413 12.3625 8.84615C12.2934 8.47572 12.1019 7.9925 11.6827 7.75918C11.302 7.96817 11.1354 8.45471 11.0369 8.83841" fill="#0C3D59"/>
</g>
<defs>
<clipPath id="clip0">
<rect width="29" height="23" fill="white"/>
</clipPath>
</defs>
</svg>
