<svg width="23" height="21" viewBox="0 0 23 21" fill="none" xmlns="http://www.w3.org/2000/svg">
<g clip-path="url(#clip0)">
<path d="M22.8419 5.64399L20.9496 0.508977C20.8352 0.203591 20.5317 0 20.1926 0H2.80662C2.46757 0 2.16401 0.203591 2.05362 0.508977L0.157321 5.64399C-0.307883 6.907 0.275593 8.3246 1.54111 8.90144C1.5687 8.91275 1.5963 8.92783 1.62784 8.93914C1.98266 9.08618 2.3769 9.16912 2.78691 9.16912C4.00511 9.16912 5.04591 8.45278 5.47957 7.43483C5.61755 7.11059 5.69246 6.75996 5.69246 6.39048C5.69246 6.75996 5.76737 7.11059 5.90535 7.43483C6.33507 8.45278 7.37981 9.16912 8.59801 9.16912C9.81622 9.16912 10.857 8.45278 11.2907 7.43483C11.4287 7.11059 11.5036 6.75996 11.5036 6.39048C11.5036 6.75996 11.5785 7.11059 11.7165 7.43483C12.1462 8.45278 13.1909 9.16912 14.4091 9.16912C15.6273 9.16912 16.6681 8.45278 17.1018 7.43483C17.2398 7.11059 17.3147 6.75996 17.3147 6.39048C17.3147 6.75996 17.3896 7.11059 17.5276 7.43483C17.9573 8.45278 19.002 9.16912 20.2202 9.16912C20.6342 9.16912 21.0245 9.08618 21.3793 8.93914C21.4069 8.92783 21.4345 8.91652 21.466 8.90144C22.7237 8.32837 23.3071 6.91077 22.8419 5.64399Z" fill="#0C3D59"/>
<path d="M17.3072 8.85996C16.5936 9.62531 15.5568 10.1079 14.4016 10.1079C13.2465 10.1079 12.2097 9.62531 11.4961 8.85996C10.7825 9.62531 9.74566 10.1079 8.59053 10.1079C7.43541 10.1079 6.39856 9.62531 5.68498 8.85996C4.97141 9.62531 3.93455 10.1079 2.77943 10.1079C2.3773 10.1079 1.987 10.0476 1.62036 9.93824V21H13.4436V11.7479H18.5688V21H21.3718V9.93824C21.0052 10.0476 20.6149 10.1079 20.2127 10.1079C19.0576 10.1079 18.0208 9.62531 17.3072 8.85996ZM9.6195 16.7095H4.4313V11.7479H9.6195V16.7095Z" fill="#0C3D59"/>
</g>
<defs>
<clipPath id="clip0">
<rect width="23" height="21" fill="white"/>
</clipPath>
</defs>
</svg>
