<svg width="24" height="25" viewBox="0 0 24 25" fill="none" xmlns="http://www.w3.org/2000/svg">
<path d="M19.8975 7.25351H14.4237L19.2325 1.60171C19.5807 1.1929 19.5308 0.579695 19.1241 0.232353C18.716 -0.116417 18.1038 -0.0663888 17.7571 0.340987L12.1363 6.94619L7.95957 2.47935C7.59284 2.0877 6.97925 2.06769 6.58826 2.43504C6.19728 2.80239 6.1773 3.41703 6.54403 3.80868L9.7661 7.25494H4.1025C1.83649 7.25351 0 9.09313 0 11.363V20.8899C0 23.1597 1.83649 24.9994 4.1025 24.9994H19.8975C22.1635 24.9994 24 23.1597 24 20.8899V11.363C24 9.09313 22.1635 7.25351 19.8975 7.25351ZM7.25037 19.4233H3.46893V12.9282H4.72038V18.2712H7.25037V19.4233ZM9.2424 19.4233H7.99096V12.9282H9.2424V19.4233ZM13.6617 19.4233H12.3375L9.84458 12.9282H11.1959L13.0039 17.8596L14.8118 12.9282H16.1631L13.6617 19.4233ZM20.5296 19.4233H16.7767V12.9282H20.4483V14.0803H18.0282V15.5897H20.063V16.7246H18.0268V18.2712H20.5296V19.4233Z" fill="#264759"/>
</svg>
