<svg width="20" height="21" viewBox="0 0 20 21" fill="none" xmlns="http://www.w3.org/2000/svg">
<g clip-path="url(#clip0)">
<path d="M19.6258 9.97778L17.6251 7.87408C17.1357 7.36297 16.3512 7.35556 15.8762 7.85186C15.8762 7.85186 8.79457 15.2 8.52829 15.5852C8.32677 15.8815 8.29799 16.2148 8.21163 16.5556C8.09648 16.9778 7.20407 20.9408 7.16089 20.9556C7.69345 20.8148 11.7453 19.763 11.9108 19.7259C12.2275 19.6593 12.4578 19.363 12.6809 19.1259L19.6618 11.8074C20.1224 11.3111 20.1152 10.4889 19.6258 9.97778ZM8.93131 16.2L11.6877 19.0889L9.09684 19.7704L8.29079 18.8815L8.93131 16.2Z" fill="#0C3D59"/>
<path d="M14.9694 1.31852H14.0842V0.651857C14.0842 0.288894 13.8035 -0.00740242 13.4581 -0.00740242H13.2997C12.9543 -0.00740242 12.6736 0.288894 12.6736 0.651857V1.31852H10.8456V0.651857C10.8456 0.288894 10.565 -0.00740242 10.2195 -0.00740242H10.0612C9.71573 -0.00740242 9.43505 0.288894 9.43505 0.651857V1.31852H7.60705V0.651857C7.60705 0.296301 7.32638 4.9877e-06 6.98093 4.9877e-06H6.8226C6.47715 4.9877e-06 6.19647 0.296301 6.19647 0.659264V1.32593H4.36848V0.659264C4.36848 0.296301 4.0878 4.9877e-06 3.74235 4.9877e-06H3.58402C3.23858 4.9877e-06 2.9579 0.296301 2.9579 0.659264V1.32593H0V21H5.52717C5.54876 20.8963 5.84383 19.8296 5.74307 19.7482C5.6783 19.6963 5.59194 19.6889 5.51277 19.6815C5.36164 19.6741 1.31702 19.6815 1.26664 19.6815C1.25945 19.6815 1.25945 19.6815 1.25225 19.6815V2.63704H2.9651V3.31852C2.9651 3.68149 3.24577 3.97778 3.59122 3.97778H3.74235C4.0878 3.97778 4.36848 3.68149 4.36848 3.31852V2.63704H6.19647V3.31852C6.19647 3.68149 6.47715 3.97778 6.8226 3.97778H6.98093C7.32638 3.97778 7.60705 3.68149 7.60705 3.31852V2.63704H9.43505V3.31852C9.43505 3.68149 9.71573 3.97778 10.0612 3.97778H10.2195C10.565 3.97778 10.8456 3.68149 10.8456 3.31852V2.63704H12.6736V3.31852C12.6736 3.68149 12.9543 3.97778 13.2997 3.97778H13.4581C13.8035 3.97778 14.0842 3.68149 14.0842 3.31852V2.63704H14.4584L15.6531 3.86667C15.6531 4.37778 15.6315 5.7926 15.7395 5.96297C15.7971 6.05926 15.8834 6.15556 15.977 6.2C16.0777 6.25186 16.5167 6.24445 16.6103 6.20741C16.6607 6.18519 16.711 6.15556 16.747 6.11112C16.8262 6.01482 16.8622 5.87408 16.8766 5.74815C16.9054 5.54075 16.8982 3.82223 16.8982 3.66667C16.8982 3.52593 16.9126 3.37038 16.8406 3.23704C16.7614 3.08889 15.0126 1.31852 14.9694 1.31852Z" fill="#0C3D59"/>
</g>
<defs>
<clipPath id="clip0">
<rect width="20" height="21" fill="white"/>
</clipPath>
</defs>
</svg>
