<svg width="20" height="20" viewBox="0 0 20 20" fill="none" xmlns="http://www.w3.org/2000/svg">
<path d="M17.0711 2.92889C15.1824 1.04023 12.6712 0 10 0C7.32882 0 4.81756 1.04023 2.92889 2.92889C1.04023 4.81756 0 7.32882 0 10C0 12.6712 1.04023 15.1824 2.92889 17.0711C4.81756 18.9598 7.32882 20 10 20C12.6712 20 15.1824 18.9602 17.0711 17.0711C18.9598 15.182 20 12.6712 20 10C20 7.32882 18.9598 4.81756 17.0711 2.92889ZM10.632 17.8485C10.6354 17.8213 10.6379 17.7941 10.6379 17.766V16.648C10.6379 16.2958 10.3521 16.01 10 16.01C9.64787 16.01 9.36208 16.2958 9.36208 16.648V17.766C9.36208 17.7941 9.36463 17.8217 9.36804 17.8485C5.53075 17.5423 2.46066 14.4731 2.15233 10.6366C2.18083 10.6405 2.21017 10.6434 2.23994 10.6434H3.358C3.71013 10.6434 3.99592 10.3577 3.99592 10.0055C3.99592 9.6534 3.71013 9.36761 3.358 9.36761H2.23952C2.20932 9.36761 2.17998 9.37059 2.15106 9.37441C2.45471 5.53245 5.5282 2.45768 9.36931 2.15191C9.36463 2.18253 9.36166 2.21315 9.36166 2.24505V3.3631C9.36166 3.71523 9.64744 4.00102 9.99957 4.00102C10.3517 4.00102 10.6375 3.71523 10.6375 3.3631V2.24462C10.6375 2.21272 10.6345 2.1821 10.6298 2.15148C14.4714 2.45726 17.5449 5.53202 17.8481 9.37399C17.8192 9.37016 17.7898 9.36718 17.7596 9.36718H16.6416C16.2894 9.36718 16.0037 9.65297 16.0037 10.0051C16.0037 10.3572 16.2894 10.643 16.6416 10.643H17.7596C17.7894 10.643 17.8183 10.6405 17.8472 10.6362C17.5398 14.4731 14.4693 17.5423 10.632 17.8485Z" fill="white"/>
<path d="M11.8794 7.33732L10.3981 8.74286C10.2722 8.70289 10.1387 8.68162 9.99964 8.68162C9.8895 8.68162 9.78275 8.69523 9.68069 8.72075L6.6442 5.45547C6.40434 5.19732 6.00075 5.18286 5.74261 5.42272C5.48446 5.66258 5.47 6.06616 5.70986 6.32431L8.74635 9.58959C8.70382 9.71888 8.68086 9.85709 8.68086 10.0004C8.68086 10.7285 9.27114 11.3192 9.99964 11.3192C10.7281 11.3192 11.3184 10.7289 11.3184 10.0004C11.3184 9.88601 11.3035 9.77459 11.2763 9.66869L12.7576 8.26315C13.0132 8.02074 13.0238 7.61673 12.7814 7.36114C12.5386 7.10554 12.135 7.09491 11.8794 7.33732Z" fill="white"/>
</svg>
