<svg width="22" height="16" viewBox="0 0 22 16" fill="none" xmlns="http://www.w3.org/2000/svg">
<path d="M19.25 0H2.75C1.23062 0 0 1.24522 0 2.78261V13.2174C0 14.7548 1.23062 16 2.75 16H19.25C20.7694 16 22 14.7548 22 13.2174V2.78261C22 1.24522 20.7694 0 19.25 0ZM20.625 13.2174C20.625 13.9826 20.0063 14.6087 19.25 14.6087H2.75C1.99375 14.6087 1.375 13.9826 1.375 13.2174V2.78261C1.375 2.01739 1.99375 1.3913 2.75 1.3913H19.25C20.0063 1.3913 20.625 2.01739 20.625 2.78261V13.2174Z" fill="white"/>
<path d="M18.1295 3.63825L11.0001 9.53738L3.87072 3.63825C3.58197 3.39478 3.14885 3.43652 2.90822 3.73565C2.66759 4.02782 2.70884 4.46608 3.00447 4.70956L10.567 10.9704C10.6907 11.0748 10.8488 11.1304 11.0001 11.1304C11.1513 11.1304 11.3095 11.0748 11.4332 10.9704L18.9957 4.70956C19.2913 4.46608 19.3326 4.02782 19.092 3.72869C18.8513 3.43652 18.4182 3.39478 18.1295 3.63825Z" fill="white"/>
</svg>
