<svg width="19" height="23" viewBox="0 0 19 23" fill="none" xmlns="http://www.w3.org/2000/svg">
<path d="M9.5 0C4.26038 0 0 4.14242 0 9.23695C0 13.6281 4.89615 18.9002 9.01038 22.5524L9.51462 23L10.0115 22.5382C14.5569 18.2821 19 13.7488 19 9.23695C19 4.14242 14.7396 0 9.5 0ZM9.48538 21.046C4.30423 16.3423 1.46154 12.1643 1.46154 9.23695C1.46154 4.924 5.06423 1.42107 9.5 1.42107C13.9358 1.42107 17.5385 4.924 17.5385 9.23695C17.5385 13.0383 13.6362 17.1452 9.48538 21.046Z" fill="white"/>
<path d="M9.49955 5.68428C7.48263 5.68428 5.8457 7.27588 5.8457 9.23695C5.8457 11.198 7.48263 12.7896 9.49955 12.7896C11.5165 12.7896 13.1534 11.198 13.1534 9.23695C13.1534 7.27588 11.5165 5.68428 9.49955 5.68428ZM9.49955 11.3686C8.29378 11.3686 7.30724 10.4093 7.30724 9.23695C7.30724 8.06457 8.29378 7.10535 9.49955 7.10535C10.7053 7.10535 11.6919 8.06457 11.6919 9.23695C11.6919 10.4093 10.7053 11.3686 9.49955 11.3686Z" fill="white"/>
</svg>
