<svg width="20" height="19" viewBox="0 0 20 19" fill="none" xmlns="http://www.w3.org/2000/svg">
<path d="M18.9467 8.44992C17.2772 4.61254 14.2808 1.6286 10.5057 0.0463093C10.188 -0.0845104 9.83291 0.0712273 9.70209 0.395162C9.5775 0.719096 9.72701 1.08664 10.0385 1.22369C13.5208 2.68139 16.2867 5.43483 17.8254 8.97319C17.925 9.20992 18.1493 9.34696 18.386 9.34696C18.467 9.34696 18.5542 9.32828 18.6352 9.2909C18.9467 9.14762 19.09 8.77385 18.9467 8.44992Z" fill="white"/>
<path d="M9.72007 4.60631C11.8319 5.4909 13.5076 7.15418 14.442 9.29713C14.5417 9.52139 14.7597 9.65844 14.984 9.65844C15.065 9.65844 15.146 9.63975 15.227 9.60238C15.526 9.46533 15.663 9.10402 15.526 8.79254C14.467 6.36303 12.5607 4.46926 10.1686 3.47254C9.86335 3.34795 9.52073 3.49746 9.39614 3.80893C9.26532 4.12664 9.41483 4.48172 9.72007 4.60631Z" fill="white"/>
<path d="M15.7194 12.007C15.383 11.6706 15.003 11.5086 14.623 11.5086C14.243 11.5086 13.863 11.6768 13.5328 12.007C13.022 12.5178 12.5112 13.0224 12.0066 13.5394C11.9194 13.6266 11.8446 13.6702 11.7636 13.6702C11.7076 13.6702 11.6515 13.6516 11.5892 13.6142C11.259 13.4335 10.904 13.2902 10.5862 13.0909C9.10362 12.1565 7.85772 10.9542 6.7551 9.6086C6.2069 8.93582 5.721 8.21942 5.38461 7.40959C5.31608 7.24762 5.32854 7.14172 5.45936 7.00467C5.97018 6.51254 6.46854 6.00172 6.97313 5.49713C7.67707 4.79319 7.67707 3.96467 6.9669 3.25451C6.56821 2.84959 6.16953 2.45713 5.76461 2.05221C5.35346 1.63483 4.94231 1.21746 4.52494 0.80631C4.18854 0.476146 3.80854 0.314178 3.42854 0.314178C3.04854 0.314178 2.66854 0.482375 2.33215 0.812539C1.82133 1.31713 1.32297 1.84041 0.799691 2.33877C0.313789 2.79975 0.0708386 3.36041 0.014773 4.02074C-0.0662106 5.09221 0.195429 6.10139 0.56297 7.08565C1.32297 9.1227 2.47543 10.9355 3.87084 12.5988C5.75838 14.8414 8.01346 16.623 10.6485 17.9001C11.8384 18.4794 13.0656 18.9217 14.4049 18.9902C14.4859 18.9965 14.5669 18.9965 14.6479 18.9965C15.4702 18.9965 16.1866 18.7473 16.7659 18.0932C17.202 17.6011 17.7003 17.1525 18.1613 16.6853C18.8466 15.9876 18.8528 15.1466 18.1676 14.4552C17.364 13.6391 16.5417 12.823 15.7194 12.007ZM17.2892 15.8132C17.1335 15.9689 16.9777 16.1184 16.822 16.2742C16.4981 16.5857 16.1679 16.9096 15.844 17.2709C15.5387 17.6135 15.1836 17.763 14.6541 17.763C14.5981 17.763 14.542 17.763 14.4797 17.7568C13.483 17.7007 12.4676 17.4017 11.203 16.785C8.761 15.5952 6.61182 13.9194 4.83018 11.8014C3.40363 10.107 2.39444 8.425 1.73412 6.65582C1.34789 5.63418 1.20461 4.84926 1.26067 4.12664C1.29182 3.75287 1.41018 3.485 1.65936 3.24828C1.9833 2.94303 2.29477 2.62533 2.61248 2.30762C2.80559 2.10205 3.00494 1.89647 3.21051 1.69713C3.32264 1.59123 3.40363 1.56008 3.42854 1.56008C3.45969 1.56008 3.54067 1.59123 3.65281 1.69713C3.9269 1.965 4.201 2.2391 4.46887 2.51319L4.88002 2.92434C5.08559 3.12992 5.28494 3.33549 5.49051 3.53483C5.68985 3.73418 5.88297 3.92729 6.08231 4.12664C6.31281 4.35713 6.30035 4.40074 6.08854 4.61254L5.87674 4.82434C5.4469 5.26041 5.0233 5.68401 4.57477 6.12008C4.08887 6.60598 3.96428 7.25385 4.23215 7.88926C4.581 8.72401 5.07936 9.52139 5.78953 10.3935C7.08526 11.9883 8.43707 13.2155 9.92592 14.1499C10.1689 14.2994 10.4181 14.424 10.6361 14.5299C10.7544 14.586 10.8728 14.6483 10.9725 14.6981C11.2279 14.8414 11.4895 14.9161 11.7636 14.9161C12.0564 14.9161 12.4925 14.8289 12.9036 14.4053C13.3958 13.9007 13.8941 13.4024 14.4174 12.8853C14.5295 12.7732 14.6043 12.7483 14.6354 12.7483C14.6603 12.7483 14.7413 12.7794 14.8535 12.8853C15.6758 13.7014 16.4918 14.5175 17.3079 15.3335C17.4885 15.5329 17.5072 15.5889 17.2892 15.8132Z" fill="white"/>
</svg>
