<svg width="13" height="13" viewBox="0 0 13 13" fill="#264759" xmlns="http://www.w3.org/2000/svg">
<path d="M8.9375 0H4.0625C1.81919 0 0 1.81919 0 4.0625V8.9375C0 11.1808 1.81919 13 4.0625 13H8.9375C11.1808 13 13 11.1808 13 8.9375V4.0625C13 1.81919 11.1808 0 8.9375 0ZM11.7812 8.9375C11.7812 10.5056 10.5056 11.7812 8.9375 11.7812H4.0625C2.49437 11.7812 1.21875 10.5056 1.21875 8.9375V4.0625C1.21875 2.49437 2.49437 1.21875 4.0625 1.21875H8.9375C10.5056 1.21875 11.7812 2.49437 11.7812 4.0625V8.9375Z" fill="#264759"/>
<path d="M6.5 3.25C4.70519 3.25 3.25 4.70519 3.25 6.5C3.25 8.29481 4.70519 9.75 6.5 9.75C8.29481 9.75 9.75 8.29481 9.75 6.5C9.75 4.70519 8.29481 3.25 6.5 3.25ZM6.5 8.53125C5.38037 8.53125 4.46875 7.61963 4.46875 6.5C4.46875 5.37956 5.38037 4.46875 6.5 4.46875C7.61963 4.46875 8.53125 5.37956 8.53125 6.5C8.53125 7.61963 7.61963 8.53125 6.5 8.53125Z" fill="#264759"/>
<path d="M9.99373 3.43951C10.2329 3.43951 10.4268 3.24563 10.4268 3.00645C10.4268 2.76728 10.2329 2.57339 9.99373 2.57339C9.75456 2.57339 9.56067 2.76728 9.56067 3.00645C9.56067 3.24563 9.75456 3.43951 9.99373 3.43951Z" fill="#264759"/>
</svg>
