<svg width="40" height="30" viewBox="0 0 40 30" fill="none" xmlns="http://www.w3.org/2000/svg">
<g clip-path="url(#clip0)">
<path d="M31.4562 24.7598C31.4859 24.6143 31.4413 24.5415 31.4413 24.4105V18.5007C31.4413 17.3071 30.5052 16.3173 29.2719 16.3173H22.9272C21.7088 16.3173 20.7281 17.3071 20.7281 18.5007V24.4105C20.7281 24.5415 20.7281 24.6143 20.7429 24.7598H31.4562ZM24.5468 13.9301C24.5765 13.0859 25.9287 11.7031 25.899 11.1354C25.899 11.1354 27.4591 11.9068 27.2511 13.9301C27.1471 14.5124 26.9688 14.9927 26.7756 15.4003C27.474 14.8326 28.3061 14.3668 28.4844 13.1587C28.5735 12.5619 28.4844 11.936 28.2318 11.3828C27.6077 10 26.4487 7.84571 26.4339 7.36536C26.4785 7.72926 23.4472 9.60699 23.4621 11.9796C23.4621 13.377 24.0713 14.4978 24.7103 15.2984C24.5765 14.9199 24.5171 14.4687 24.5468 13.9301ZM19.5394 24.7598C19.5691 24.6143 19.5542 24.5415 19.5542 24.4105V12.3435C19.5542 11.1499 18.5884 10.2038 17.37 10.2038H11.0253C9.80683 10.2038 8.85587 11.1499 8.85587 12.3435V24.4105C8.85587 24.5415 8.82615 24.6143 8.85587 24.7598H19.5394ZM13.3284 8.93741C13.1204 8.48617 12.9272 7.9476 12.8083 7.30713C12.5706 5.0655 14.3091 4.2067 14.3091 4.2067C14.2793 4.84716 15.7801 6.36099 15.8098 7.30713C15.8544 7.90393 15.7801 8.41339 15.6315 8.82096C16.3447 7.93304 17.0282 6.68122 17.0282 5.13828C17.0282 2.48908 13.6404 0.393013 13.6999 0C13.6701 0.524017 12.3923 2.92576 11.6939 4.4687C11.4116 5.09461 11.3076 5.77875 11.4116 6.44833C11.6345 7.78748 12.5409 8.29694 13.3284 8.93741ZM0 25.4876L3.50669 29.8544C3.55126 29.9127 3.64042 30 3.75929 30H36.2556C36.3596 30 36.4636 29.9127 36.5082 29.8544L40.0149 25.4876H0Z" fill="white"/>
</g>
<defs>
<clipPath id="clip0">
<rect width="40" height="30" fill="white"/>
</clipPath>
</defs>
</svg>
