<svg width="24" height="20" viewBox="0 0 24 20" fill="none" xmlns="http://www.w3.org/2000/svg">
<g clip-path="url(#clip0)">
<path d="M17.6727 7.36842L12.8727 0.421053C12.6545 0.105263 12.3273 0 12 0C11.6727 0 11.3455 0.105263 11.1273 0.421053L6.32727 7.36842H1.09091C0.545455 7.36842 0 7.78947 0 8.42105C0 8.52632 0 8.63158 0 8.73684L2.72727 18.5263C2.94545 19.3684 3.81818 20.1053 4.8 20.1053H18.9818C19.9636 20.1053 20.8364 19.4737 21.0545 18.5263L24 8.63158V8.42105C24 7.78947 23.4545 7.36842 22.9091 7.36842H17.6727ZM8.72727 7.36842L12 2.73684L15.2727 7.36842H8.72727ZM12 15.7895C10.8 15.7895 9.81818 14.8421 9.81818 13.6842C9.81818 12.5263 10.8 11.5789 12 11.5789C13.2 11.5789 14.1818 12.5263 14.1818 13.6842C14.1818 14.8421 13.2 15.7895 12 15.7895Z" fill="white"/>
</g>
<defs>
<clipPath id="clip0">
<rect width="24" height="20" fill="white"/>
</clipPath>
</defs>
</svg>
