<svg width="10" height="17" viewBox="0 0 10 17" fill="none" xmlns="http://www.w3.org/2000/svg">
<path d="M6.94336 11.6338C6.94336 11.1533 6.80859 10.7725 6.53906 10.4912C6.27539 10.2041 5.82422 9.94043 5.18555 9.7002C4.54688 9.45996 3.99609 9.22266 3.5332 8.98828C3.07031 8.74805 2.67188 8.47559 2.33789 8.1709C2.00977 7.86035 1.75195 7.49707 1.56445 7.08105C1.38281 6.66504 1.29199 6.16992 1.29199 5.5957C1.29199 4.60547 1.6084 3.79395 2.24121 3.16113C2.87402 2.52832 3.71484 2.15918 4.76367 2.05371V0.172852H6.16992V2.08008C7.20703 2.22656 8.01855 2.66016 8.60449 3.38086C9.19043 4.0957 9.4834 5.02441 9.4834 6.16699H6.94336C6.94336 5.46387 6.79688 4.93945 6.50391 4.59375C6.2168 4.24219 5.83008 4.06641 5.34375 4.06641C4.86328 4.06641 4.49121 4.2041 4.22754 4.47949C3.96387 4.74902 3.83203 5.12402 3.83203 5.60449C3.83203 6.0498 3.96094 6.40723 4.21875 6.67676C4.47656 6.94629 4.9541 7.22168 5.65137 7.50293C6.35449 7.78418 6.93164 8.05078 7.38281 8.30273C7.83398 8.54883 8.21484 8.83008 8.52539 9.14648C8.83594 9.45703 9.07324 9.81445 9.2373 10.2188C9.40137 10.6172 9.4834 11.083 9.4834 11.6162C9.4834 12.6123 9.17285 13.4209 8.55176 14.042C7.93066 14.6631 7.0752 15.0293 5.98535 15.1406V16.8896H4.58789V15.1494C3.38672 15.0205 2.45508 14.5957 1.79297 13.875C1.13672 13.1484 0.808594 12.1846 0.808594 10.9834H3.34863C3.34863 11.6807 3.5127 12.2168 3.84082 12.5918C4.1748 12.9609 4.65234 13.1455 5.27344 13.1455C5.78906 13.1455 6.19629 13.0107 6.49512 12.7412C6.79395 12.4658 6.94336 12.0967 6.94336 11.6338Z" fill="#264759"/>
</svg>
