<svg width="21" height="26" viewBox="0 0 21 26" fill="none" xmlns="http://www.w3.org/2000/svg">
<g clip-path="url(#clip0)">
<path d="M17.4498 16.4416C18.1996 16.0602 18.4802 17.3988 17.4498 18.3529C16.4194 19.308 15.7638 20.169 15.7638 20.169C15.7638 20.169 18.4802 18.9276 18.9483 18.5451C19.4175 18.1627 19.3232 15.869 19.5107 14.5314C19.6981 13.1938 20.916 13.5763 20.916 14.5314C20.916 15.4865 21.1034 19.4051 20.916 20.1701C20.7286 20.935 17.3709 22.8964 16.5915 23.444C15.8099 23.9915 15.4074 24.7418 15.1544 26H11.3614C11.3614 26 11.4546 22.1775 12.1102 20.935C12.7668 19.6915 16.7 16.8251 17.4498 16.4416Z" fill="white"/>
<path d="M0.0829687 14.5314C0.0829687 13.5763 1.30085 13.1938 1.48829 14.5314C1.67574 15.87 1.5815 18.1627 2.05063 18.5451C2.51873 18.9276 5.23515 20.169 5.23515 20.169C5.23515 20.169 4.5796 19.309 3.54917 18.3529C2.51873 17.3978 2.79939 16.0602 3.54917 16.4416C4.29895 16.8241 8.23222 19.6915 8.88776 20.9339C9.54433 22.1764 9.63754 25.9989 9.63754 25.9989H5.8446C5.59057 24.7408 5.18905 23.9905 4.40752 23.4429C3.62701 22.8954 0.26939 20.9339 0.0829687 20.169C-0.104476 19.4051 0.0829687 15.4865 0.0829687 14.5314Z" fill="white"/>
<path d="M4.67179 11.1248C0.326748 5.44535 2.22271 -0.231991 6.38542 0.00730852C9.79938 0.203764 10.499 4.26558 10.499 4.26558C10.499 4.26558 11.1996 0.202719 14.6135 0.00730852C18.7773 -0.231991 20.6732 5.44535 16.3282 11.1248C12.8241 15.7039 10.5 16.3988 10.5 16.3988C10.5 16.3988 8.17588 15.7039 4.67179 11.1248Z" fill="white"/>
</g>
<defs>
<clipPath id="clip0">
<rect width="21" height="26" transform="matrix(-1 0 0 1 21 0)" fill="white"/>
</clipPath>
</defs>
</svg>
