<svg xmlns="http://www.w3.org/2000/svg" width="24" height="22.477" viewBox="0 0 24 22.477">
  <g id="iconfinder_2738302_filter_settings_sliders_icon" transform="translate(-1 -3.991)">
    <path id="Path_1" data-name="Path 1" d="M1.75,7.75H8.43a2.994,2.994,0,0,0,5.805,0H24.25a.75.75,0,0,0,0-1.5H14.236a2.994,2.994,0,0,0-5.805,0H1.75a.75.75,0,0,0,0,1.5Zm9.583-2.259A1.509,1.509,0,1,1,9.824,7,1.51,1.51,0,0,1,11.333,5.491Z" fill="#fff"/>
    <path id="Path_2" data-name="Path 2" d="M24.25,12.25H22.644a2.994,2.994,0,0,0-5.805,0H1.75a.75.75,0,0,0,0,1.5H16.839a2.994,2.994,0,0,0,5.805,0H24.25a.75.75,0,1,0,0-1.5Zm-4.509,2.259A1.509,1.509,0,1,1,21.25,13,1.51,1.51,0,0,1,19.741,14.509Z" transform="translate(0 2.23)" fill="#fff"/>
    <path id="Path_3" data-name="Path 3" d="M24.25,18.25H9.718a2.994,2.994,0,0,0-5.8,0H1.75a.75.75,0,0,0,0,1.5H3.914a2.994,2.994,0,0,0,5.8,0H24.25a.75.75,0,0,0,0-1.5ZM6.816,20.509A1.509,1.509,0,1,1,8.324,19,1.51,1.51,0,0,1,6.816,20.509Z" transform="translate(0 4.46)" fill="#fff"/>
  </g>
</svg>
