<svg width="22" height="25" viewBox="0 0 22 25" fill="none" xmlns="http://www.w3.org/2000/svg">
<path d="M20.5103 19.8386V1.54112C20.5103 1.54112 20.5103 1.54112 20.5071 1.54112C20.4789 1.5378 20.3343 1.52451 20.1049 1.49794C20.0671 1.49462 20.0231 1.48798 19.9823 1.48466C19.932 1.47801 19.8786 1.47137 19.822 1.46805H19.8189C19.8189 1.46805 19.8189 1.46805 19.8157 1.46805C19.7937 1.46473 19.7686 1.46141 19.7434 1.46141C19.7246 1.45808 19.7089 1.45808 19.69 1.45476C19.5674 1.44148 19.4323 1.42487 19.2909 1.40494C19.2814 1.40494 19.2689 1.40162 19.2594 1.40162C19.0866 1.37837 18.9043 1.35512 18.7126 1.32855C18.5649 1.30862 18.414 1.28537 18.2569 1.26544C18.1909 1.25548 18.1249 1.24552 18.0589 1.23555C18.0117 1.22891 17.9646 1.22227 17.9174 1.2123C17.8671 1.20566 17.8169 1.1957 17.7666 1.18905C17.7603 1.18905 17.754 1.18573 17.7477 1.18573C17.6597 1.17245 17.5717 1.15584 17.4806 1.14255C17.4491 1.13591 17.4146 1.13259 17.3831 1.12595C17.3706 1.12263 17.3611 1.12263 17.3486 1.1193C17.3423 1.1193 17.3391 1.11598 17.3329 1.11598C17.2857 1.10934 17.2417 1.09938 17.1946 1.09273C17.1506 1.08609 17.1066 1.07613 17.0657 1.06948C17.0594 1.06948 17.05 1.06616 17.0437 1.06616C17.006 1.05952 16.9714 1.05288 16.9337 1.04623C16.8991 1.03959 16.8646 1.03295 16.83 1.02631C16.7546 1.01302 16.6791 0.996413 16.6037 0.983127C16.6006 0.983127 16.6006 0.983127 16.5974 0.983127C16.5629 0.976485 16.5283 0.969842 16.4969 0.963199C16.4906 0.963199 16.4843 0.959878 16.478 0.959878C16.4466 0.953235 16.4183 0.946592 16.39 0.939949C16.3837 0.939949 16.3743 0.936628 16.368 0.936628C16.3397 0.929985 16.3083 0.923343 16.28 0.9167C16.2737 0.9167 16.2674 0.913378 16.258 0.913378C16.2266 0.906736 16.1951 0.900093 16.1669 0.89345C16.1637 0.89345 16.1574 0.890129 16.1543 0.890129C16.082 0.873522 16.0129 0.856915 15.9406 0.843629C15.928 0.840308 15.9154 0.836987 15.8997 0.833665C15.7551 0.800452 15.6106 0.763916 15.4754 0.727381C15.3371 0.690846 15.2083 0.654311 15.0826 0.614455C13.2189 0.0232497 11 0 11 0C11 0 8.78114 0.0232496 6.91743 0.611133C6.79486 0.65099 6.66286 0.687525 6.52457 0.72406C6.38943 0.760595 6.248 0.79713 6.10029 0.830344C6.08771 0.833665 6.07514 0.836987 6.05943 0.840308C5.99029 0.856915 5.918 0.873522 5.84571 0.886807C5.84257 0.886807 5.83629 0.890129 5.83314 0.890129C5.80171 0.896771 5.77029 0.903414 5.742 0.910057C5.73571 0.910057 5.72943 0.913378 5.72 0.913378C5.69171 0.920021 5.66343 0.926664 5.632 0.933307C5.62571 0.933307 5.61629 0.936628 5.61 0.936628C5.58171 0.943271 5.55029 0.949914 5.522 0.956556C5.51571 0.956556 5.50943 0.959878 5.50314 0.959878C5.46857 0.96652 5.43714 0.973163 5.40257 0.979806C5.39943 0.979806 5.39943 0.979806 5.39629 0.979806C5.32086 0.993091 5.24543 1.0097 5.17 1.02298C5.13543 1.02963 5.10086 1.03627 5.06629 1.04291C5.02857 1.04955 4.994 1.0562 4.95629 1.06284C4.95 1.06284 4.94057 1.06616 4.93429 1.06616C4.89029 1.0728 4.84629 1.08277 4.80543 1.08941C4.75829 1.09605 4.71429 1.10602 4.66714 1.11266C4.66086 1.11266 4.65771 1.11598 4.65143 1.11598C4.63886 1.1193 4.62943 1.1193 4.61686 1.12263C4.58543 1.12927 4.55086 1.13259 4.51943 1.13923C4.43143 1.15252 4.34029 1.16912 4.25229 1.18241C4.246 1.18241 4.23971 1.18573 4.23343 1.18573C4.18314 1.19237 4.13286 1.20234 4.08257 1.20898C4.03543 1.21562 3.98829 1.22227 3.94114 1.23223C3.87514 1.24219 3.80914 1.25216 3.74314 1.26212C3.58914 1.28537 3.43514 1.3053 3.29057 1.32523C3.09886 1.3518 2.91343 1.37505 2.74371 1.3983C2.73429 1.3983 2.72171 1.40162 2.71229 1.40162C2.56771 1.41823 2.43571 1.43483 2.31314 1.45144C2.29429 1.45476 2.27857 1.45476 2.25971 1.45808C2.23457 1.46141 2.21257 1.46473 2.18743 1.46473C2.18743 1.46473 2.18743 1.46473 2.18429 1.46473H2.18114C2.12457 1.47137 2.07114 1.47801 2.02086 1.48133C1.97686 1.48466 1.936 1.4913 1.89829 1.49462C1.672 1.52119 1.52743 1.53448 1.496 1.5378C1.496 1.5378 1.496 1.5378 1.49286 1.5378V19.8353H0V24.9967H22V19.8386H20.5103Z" fill="white"/>
<path d="M14.322 7.32695H11.638V4.19489H10.3306V7.32695H7.67798V8.71196H10.3306V17.4804H11.638V8.71196H14.322V7.32695Z" fill="#79B974"/>
</svg>
