<svg width="50" height="50" viewBox="0 0 50 50" fill="none" xmlns="http://www.w3.org/2000/svg">
<path d="M40.6979 9.30245C36.5049 5.10941 30.9303 2.80029 25.0003 2.80029C19.0706 2.80029 13.4957 5.10941 9.3027 9.30245C5.10989 13.4955 2.80078 19.0703 2.80078 25.0001C2.80078 30.9298 5.10989 36.5046 9.30294 40.6977C13.4957 44.8907 19.0706 47.1998 25.0005 47.1998C30.9303 47.1998 36.5051 44.8907 40.6981 40.6977C44.8912 36.5048 47.2003 30.93 47.2003 25.0001C47.1998 19.0703 44.8907 13.4955 40.6979 9.30245ZM39.5521 39.5519C37.6619 41.4423 35.461 42.9262 33.0104 43.9629C30.4739 45.0355 27.779 45.5794 25.0003 45.5794C22.2216 45.5794 19.5267 45.0355 16.9902 43.9629C14.5399 42.9264 12.3389 41.4423 10.4483 39.5519C8.55786 37.6617 7.07392 35.4607 6.03723 33.0101C4.96457 30.4739 4.42069 27.779 4.42069 25.0001C4.42069 22.2212 4.96457 19.5262 6.03723 16.99C7.07368 14.5396 8.55762 12.3387 10.4483 10.448C12.3389 8.55761 14.5399 7.07343 16.9902 6.03698C19.5264 4.96432 22.2214 4.42044 25.0003 4.42044C27.7792 4.42044 30.4742 4.96432 33.0104 6.03698C35.461 7.07343 37.6619 8.55761 39.5521 10.448C41.4425 12.3382 42.9264 14.5394 43.9631 16.9897C45.0358 19.5262 45.5799 22.2212 45.5799 24.9998C45.5799 27.7785 45.036 30.4734 43.9634 33.0099C42.9264 35.4607 41.4425 37.6617 39.5521 39.5519Z" fill="#79B974"/>
<path d="M42.6777 7.3223C37.9559 2.60048 31.6777 0 25 0C18.3223 0 12.0444 2.60048 7.3223 7.3223C2.60048 12.0444 0 18.3223 0 25C0 31.6777 2.60048 37.9559 7.3223 42.6777C12.0441 47.3995 18.3221 50 25 50C31.6777 50 37.9559 47.3995 42.6777 42.6777C47.3995 37.9559 50 31.6777 50 25C50 18.3223 47.3995 12.0441 42.6777 7.3223ZM41.3873 41.3875C39.2588 43.5163 36.7801 45.1875 34.0204 46.3549C31.164 47.5628 28.129 48.1755 25 48.1755C21.8707 48.1755 18.836 47.5631 15.9796 46.3549C13.2201 45.1878 10.7415 43.5163 8.61247 41.3873C6.48369 39.2585 4.81247 36.7799 3.64508 34.0204C2.43717 31.1643 1.82446 28.1293 1.82446 25C1.82446 21.8705 2.43693 18.8357 3.64508 15.9796C4.81223 13.2201 6.48345 10.7415 8.61247 8.61247C10.7415 6.48345 13.2201 4.81223 15.9796 3.64508C18.8357 2.43693 21.8705 1.82446 25 1.82446C28.1295 1.82446 31.1643 2.43693 34.0204 3.64508C36.7801 4.81247 39.2588 6.48369 41.3873 8.61247C43.5161 10.7412 45.1873 13.2199 46.3547 15.9796C47.5628 18.836 48.1753 21.871 48.1753 25C48.1753 28.1293 47.5628 31.164 46.3547 34.0204C45.1875 36.7803 43.5163 39.259 41.3873 41.3875Z" fill="#79B974"/>
<path d="M36.9117 14.5024C35.7661 13.6453 34.1433 13.8789 33.2863 15.0244L22.4887 29.4544L16.5429 23.0196C15.5724 21.969 13.9335 21.9048 12.8829 22.8753C11.8325 23.846 11.7678 25.4846 12.7385 26.5352L20.6162 35.0604C20.8577 35.3218 21.1414 35.5199 21.4465 35.6585C21.8529 35.8966 22.3031 36.0144 22.7508 36.0144C23.5393 36.0144 24.3177 35.6559 24.8263 34.976L37.4335 18.1278C38.2906 16.9825 38.0568 15.3595 36.9117 14.5024Z" fill="#79B974"/>
</svg>
