<svg width="17" height="26" viewBox="0 0 17 26" fill="none" xmlns="http://www.w3.org/2000/svg">
<path d="M13.3093 7.55622C11.5633 4.48961 9.83825 1.96351 9.76507 1.8532L8.5 0L7.23493 1.86423C7.16175 1.97454 5.44711 4.50064 3.69065 7.56725C1.21279 11.9245 0 15.0242 0 17.0318C0 21.9737 3.81611 26 8.5 26C13.1839 26 17 21.9737 17 17.0318C17 15.0242 15.7977 11.9245 13.3093 7.55622ZM7.69496 22.7017C6.91082 22.7017 6.17897 22.5252 5.50984 22.2053C4.85117 21.8965 4.31796 21.3339 4.07749 20.6279C3.83702 19.944 3.87884 19.249 4.50615 18.6644C5.91759 17.3407 7.94588 18.8299 9.67097 17.6716C12.4102 15.8294 11.2811 12.8401 10.3192 10.1154C11.8561 12.9062 13.0793 15.6199 13.0793 17.0208C13.0689 20.1536 10.6538 22.7017 7.69496 22.7017Z" fill="white"/>
</svg>
