<svg width="12" height="15" viewBox="0 0 12 15" fill="none" xmlns="http://www.w3.org/2000/svg">
<g clip-path="url(#clip0)">
<path d="M5.02757 9.77519C4.92899 10.1645 4.83937 10.5105 4.74079 10.8565C4.5974 11.3842 4.46297 11.9119 4.30166 12.4309C4.15827 12.8807 3.94318 13.3046 3.69225 13.7025C3.44131 14.0918 3.16349 14.4724 2.89464 14.8617C2.84983 14.9222 2.81398 15.0261 2.69747 14.9915C2.58993 14.9655 2.60785 14.853 2.59889 14.7838C2.47343 13.8842 2.41069 12.9845 2.54512 12.0762C2.59889 11.6956 2.70644 11.3236 2.78709 10.943C2.91256 10.3894 3.04699 9.83574 3.18142 9.29076C3.35169 8.57277 3.53093 7.85477 3.71017 7.13678C3.73706 7.01567 3.73706 6.92052 3.69225 6.79941C3.43235 6.11602 3.3965 5.40668 3.59366 4.70599C3.71913 4.28211 3.9611 3.91014 4.3375 3.64197C4.68702 3.39111 5.26058 3.2181 5.80726 3.52086C6.103 3.68522 6.25535 3.96204 6.32705 4.27346C6.41667 4.65408 6.3629 5.0347 6.25535 5.39803C6.09404 6.02086 5.89688 6.6437 5.71764 7.26654C5.6549 7.47415 5.59217 7.68176 5.57425 7.88938C5.48463 8.77173 6.18366 9.36862 7.03504 9.36862C7.6086 9.36862 8.08358 9.13505 8.48687 8.74578C9.01562 8.2354 9.32033 7.60391 9.53541 6.92052C9.74154 6.25443 9.83116 5.57104 9.84908 4.879C9.867 4.0399 9.64296 3.27 9.06939 2.61256C8.67507 2.16273 8.1732 1.86861 7.59964 1.68695C6.87373 1.45339 6.12092 1.41879 5.37709 1.52259C4.54363 1.6437 3.80875 1.97242 3.17246 2.5174C2.76917 2.86342 2.44654 3.26135 2.20457 3.71983C1.76543 4.57623 1.61308 5.47588 1.84609 6.41879C1.91779 6.72156 2.07014 6.99837 2.28523 7.24059C2.339 7.30114 2.38381 7.36169 2.42862 7.42225C2.50031 7.5001 2.50927 7.59526 2.49135 7.69906C2.41965 7.96723 2.35692 8.2354 2.27626 8.50356C2.21353 8.71983 2.07014 8.78903 1.85505 8.70252C1.22772 8.46031 0.779625 8.03644 0.483881 7.4655C0.0447478 6.63505 -0.0538333 5.74405 0.0626716 4.82709C0.161253 4.01394 0.47492 3.2873 0.940939 2.60391C1.37111 1.97242 1.91779 1.47069 2.55408 1.04682C3.15453 0.657542 3.80875 0.406677 4.51674 0.242317C5.19785 0.0866077 5.87895 0.008753 6.57798 0.026054C7.57275 0.0520056 8.52272 0.259618 9.38306 0.744047C10.1627 1.17657 10.799 1.75616 11.274 2.5001C11.7849 3.29595 12.0268 4.15235 12.0089 5.07796C11.991 6.02086 11.8386 6.94647 11.4712 7.82882C11.1396 8.62467 10.6736 9.32536 9.99247 9.88765C9.45476 10.3288 8.84535 10.6316 8.14632 10.77C7.59068 10.8825 7.03504 10.9084 6.48836 10.7613C6.06715 10.6575 5.68179 10.4759 5.36812 10.1818C5.25162 10.052 5.162 9.92225 5.02757 9.77519Z" fill="white"/>
</g>
<defs>
<clipPath id="clip0">
<rect width="12" height="15" fill="white"/>
</clipPath>
</defs>
</svg>
