<svg width="15" height="15" viewBox="0 0 15 15" fill="none" xmlns="http://www.w3.org/2000/svg">
<path d="M13.4581 4.44475C13.4676 4.57799 13.4676 4.71127 13.4676 4.84451C13.4676 8.90857 10.3744 13.5913 4.72081 13.5913C2.97905 13.5913 1.36104 13.0869 0 12.2113C0.247471 12.2398 0.485391 12.2493 0.742383 12.2493C2.17954 12.2493 3.50253 11.7639 4.559 10.9359C3.20748 10.9073 2.07486 10.0222 1.68463 8.80389C1.875 8.83243 2.06534 8.85147 2.26523 8.85147C2.54124 8.85147 2.81728 8.81338 3.07424 8.74679C1.66562 8.46124 0.609111 7.22394 0.609111 5.72965V5.6916C1.01836 5.92003 1.49429 6.06279 1.99869 6.0818C1.17064 5.52976 0.628154 4.58752 0.628154 3.52152C0.628154 2.95047 0.78041 2.42699 1.04692 1.97013C2.56025 3.83561 4.83501 5.05386 7.38574 5.18713C7.33816 4.95871 7.3096 4.72079 7.3096 4.48284C7.3096 2.78866 8.68017 1.4086 10.3838 1.4086C11.269 1.4086 12.0685 1.77979 12.63 2.37941C13.3248 2.24617 13.991 1.98918 14.5812 1.63703C14.3527 2.35088 13.8673 2.95049 13.2296 3.33118C13.8483 3.26459 14.4479 3.09323 14.9999 2.85531C14.5812 3.46442 14.0577 4.00691 13.4581 4.44475Z" fill="white"/>
</svg>
